<svg width="40" height="29" viewBox="0 0 40 29" fill="none" xmlns="http://www.w3.org/2000/svg">
<path d="M0.807617 5.21369C0.807617 3.80125 1.95262 2.65625 3.36505 2.65625H5.92249C7.33492 2.65625 8.47993 3.80125 8.47993 5.21369V18.0009C8.47993 19.4133 9.62493 20.5583 11.0374 20.5583H28.9394C30.3519 20.5583 31.4969 19.4133 31.4969 18.0009V5.21369C31.4969 3.80125 32.6419 2.65625 34.0543 2.65625H36.6117C38.0242 2.65625 39.1692 3.80125 39.1692 5.21369V21.8371C39.1692 25.3681 36.3067 28.2307 32.7756 28.2307H7.20121C3.67012 28.2307 0.807617 25.3681 0.807617 21.8371V5.21369Z" fill="#F8FAFC"/>
<path d="M9.75684 3.93772C9.75684 1.81907 11.4743 0.101562 13.593 0.101562H26.3802C28.4988 0.101562 30.2163 1.81907 30.2163 3.93772V18.0036C30.2163 18.7099 29.6438 19.2824 28.9376 19.2824H11.0356C10.3293 19.2824 9.75684 18.7099 9.75684 18.0036V3.93772Z" fill="#F8FAFC"/>
</svg>
