<svg width="40" height="29" viewBox="0 0 40 29" fill="none" xmlns="http://www.w3.org/2000/svg">
<path d="M0.942383 5.21369C0.942383 3.80125 2.08739 2.65625 3.49982 2.65625H6.05725C7.46969 2.65625 8.61469 3.80125 8.61469 5.21369V18.0009C8.61469 19.4133 9.7597 20.5583 11.1721 20.5583H29.0742C30.4866 20.5583 31.6316 19.4133 31.6316 18.0009V5.21369C31.6316 3.80125 32.7766 2.65625 34.1891 2.65625H36.7465C38.1589 2.65625 39.3039 3.80125 39.3039 5.21369V21.8371C39.3039 25.3681 36.4414 28.2307 32.9103 28.2307H7.33598C3.80489 28.2307 0.942383 25.3681 0.942383 21.8371V5.21369Z" fill="#475569"/>
<path d="M9.89453 3.93772C9.89453 1.81907 11.612 0.101562 13.7307 0.101562H26.5179C28.6365 0.101562 30.354 1.81907 30.354 3.93772V18.0036C30.354 18.7099 29.7815 19.2824 29.0753 19.2824H11.1733C10.467 19.2824 9.89453 18.7099 9.89453 18.0036V3.93772Z" fill="#475569"/>
</svg>
