<svg width="40" height="29" viewBox="0 0 40 29" fill="none" xmlns="http://www.w3.org/2000/svg">
<path d="M0.652344 5.39338C0.652344 3.98094 1.79735 2.83594 3.20978 2.83594H5.76722C7.17965 2.83594 8.32466 3.98094 8.32466 5.39338V18.1806C8.32466 19.593 9.46966 20.738 10.8821 20.738H28.7841C30.1966 20.738 31.3416 19.593 31.3416 18.1806V5.39338C31.3416 3.98094 32.4866 2.83594 33.899 2.83594H36.4565C37.8689 2.83594 39.0139 3.98094 39.0139 5.39338V22.0167C39.0139 25.5478 36.1514 28.4103 32.6203 28.4103H7.04594C3.51485 28.4103 0.652344 25.5478 0.652344 22.0167V5.39338Z" fill="#F3EA28"/>
<path d="M9.59863 4.11741C9.59863 1.99876 11.3161 0.28125 13.4348 0.28125H26.222C28.3406 0.28125 30.0581 1.99876 30.0581 4.11741V18.1833C30.0581 18.8896 29.4856 19.4621 28.7794 19.4621H10.8774C10.1711 19.4621 9.59863 18.8896 9.59863 18.1833V4.11741Z" fill="#F3EA28"/>
</svg>
